<svg xmlns="http://www.w3.org/2000/svg" xmlns:xlink="http://www.w3.org/1999/xlink" xml:space="preserve" version="1.1" style="shape-rendering:geometricPrecision;text-rendering:geometricPrecision;image-rendering:optimizeQuality;" viewBox="0 0 305 142.5" x="0px" y="0px" fill-rule="evenodd" clip-rule="evenodd"><defs><style type="text/css">
   
    .fil1 {fill:black}
    .fil0 {fill:black}
   
  </style></defs><g><path class="fil0" d="M148 18l9 0c4,0 8,3 8,8l0 20c0,4 -4,8 -8,8l-9 0c-4,0 -8,-4 -8,-8l0 -20c0,-5 4,-8 8,-8z"/><path class="fil0" d="M167 55c-1,4 -5,7 -9,7l-11 0c-4,0 -8,-3 -9,-7l29 0z"/><path class="fil0" d="M134 54c-1,-6 0,-17 0,-23 0,-5 3,-9 7,-11 -2,1 -3,3 -3,6l0 21c0,3 2,5 4,7l-8 0z"/><path class="fil0" d="M164 20c4,2 8,6 8,11 0,6 0,17 -1,23l-8 0c2,-2 4,-4 4,-7l0 -21c0,-3 -1,-5 -3,-6z"/><path class="fil0" d="M136 78l8 -15 17 0 8 15 -8 14 -17 0 -8 -14zm17 -10c5,0 9,4 9,10 0,5 -4,9 -9,9 -6,0 -10,-4 -10,-9 0,-6 4,-10 10,-10z"/><path class="fil1" d="M158 73c1,1 2,3 2,5 0,2 -1,4 -3,5 -1,-1 -3,-2 -4,-2 -2,0 -4,1 -5,2 -2,-1 -3,-3 -3,-5 0,-2 1,-4 2,-5 1,1 3,2 6,2 2,0 4,-1 5,-2z"/><path class="fil0" d="M8 17c24,-1 41,-2 47,-2 2,0 1,0 1,0 -5,1 -15,3 -17,4 -2,1 -5,2 -5,2l-27 1c-9,0 -10,-3 1,-5z"/><polygon class="fil1" points="102,114 92,114 92,108 98,90 99,89 101,83 113,61 126,47 131,48 116,63 106,82 107,81 109,81 109,82 113,82 111,86 109,86 100,107 104,107 "/><path class="fil0" d="M47 30l10 0c0,-2 0,-15 1,-16 1,-1 2,-1 3,-1 1,0 3,0 3,1 2,1 1,14 1,16l10 0 0 21 -2 0c-1,2 -3,4 -5,4l-13 0c-3,0 -5,-2 -5,-4l-3 0 0 -21z"/><path class="fil0" d="M132 46c0,0 -12,-1 -15,-2 -4,-1 -8,-3 -8,-3l-28 -3 -4 2 0 -12 -11 0c1,-1 6,-6 9,-6 2,0 4,0 6,0l0 -6c-6,0 -11,0 -14,0 -1,0 0,-1 0,-1 4,0 15,-2 16,-3 2,-1 4,-1 5,-1l0 -8c0,-1 2,-2 3,-2 1,0 2,1 2,2l0 8 23 0c9,0 10,3 -2,5 -5,0 -9,0 -14,0l0 5 2 3 16 8c3,1 11,-1 14,-2l0 16z"/><path class="fil0" d="M51 4c18,0 31,-1 36,-1 0,0 0,0 0,0 -4,1 -11,3 -13,3 -1,1 -3,1 -3,1l-21 1c-6,0 -7,-2 1,-4z"/><path class="fil0" d="M131 4c-18,0 -31,0 -36,0 0,0 0,0 0,0 4,-1 11,-2 13,-3 1,-1 3,-1 3,-1l21 0c7,0 7,3 -1,4z"/><path class="fil0" d="M297 17c-23,-1 -41,-2 -47,-2 -1,0 -1,0 -1,0 5,1 15,3 17,4 2,1 5,2 5,2l27 1c9,0 10,-3 -1,-5z"/><polygon class="fil1" points="203,114 213,114 213,108 207,90 206,89 205,83 193,61 179,47 174,48 189,63 199,82 198,81 196,81 196,82 192,82 194,86 196,86 205,107 201,107 "/><path class="fil0" d="M258 30l-10 0c0,-2 0,-15 -1,-16 -1,-1 -2,-1 -3,-1 -1,0 -2,0 -3,1 -2,1 -1,14 -1,16l-10 0 0 21 3 0c0,2 2,4 4,4l14 0c2,0 4,-2 4,-4l3 0 0 -21z"/><path class="fil0" d="M173 46c0,0 12,-1 15,-2 4,-1 8,-3 8,-3l28 -3 4 2 0 -12 11 0c-1,-1 -6,-6 -9,-6 -2,0 -4,0 -6,0l0 -6c6,0 11,0 14,0 1,0 1,-1 0,-1 -4,0 -15,-2 -16,-3 -1,-1 -4,-1 -5,-1l0 -8c0,-1 -1,-2 -3,-2 -1,0 -2,1 -2,2l0 8 -23 0c-8,0 -9,3 2,5 5,0 9,0 14,0l0 5 -2 3 -16 8c-3,1 -11,-1 -14,-2l0 16z"/><path class="fil0" d="M254 4c-18,0 -31,-1 -35,-1 -1,0 -1,0 -1,0 4,1 11,3 13,3 1,1 3,1 3,1l21 1c7,0 7,-2 -1,-4z"/><path class="fil0" d="M174 4c18,0 31,0 36,0 1,0 0,0 0,0 -4,-1 -11,-2 -13,-3 -1,-1 -3,-1 -3,-1l-21 0c-6,0 -7,3 1,4z"/></g><text x="0" y="129" fill="#000000" font-size="5px" font-weight="bold" font-family="'Helvetica Neue', Helvetica, Arial-Unicode, Arial, Sans-serif">Created by kareemov1000</text><text x="0" y="134" fill="#000000" font-size="5px" font-weight="bold" font-family="'Helvetica Neue', Helvetica, Arial-Unicode, Arial, Sans-serif">from the Noun Project</text></svg>